<?xml version="1.0" encoding="UTF-8"?>
<svg id="Capa_2" data-name="Capa 2" xmlns="http://www.w3.org/2000/svg" viewBox="0 0 380.28 86.49">
  <defs>
    <style>
      .cls-1, .cls-2 {
        fill: #fff;
      }

      .cls-2 {
        fill-rule: evenodd;
      }
    </style>
  </defs>
  <g id="Capa_2-2" data-name="Capa 2">
    <g>
      <g>
        <path class="cls-2" d="m1.37,26.37l2.41,1.33,2.47,1.27,2.47,1.33,2.47,1.33,2.47,1.27,2.47,1.33,2.47,1.33,2.47,1.33,2.47,1.27,2.41,1.33,2.47,1.27,2.41,1.27,2.34,1.27,2.41,1.27,2.27,1.21,2.27,1.21v16.65l-.07,1.91v3.94l-.07,1.97v1.91l-.07,1.97v1.97l-.96-.57-.96-.51-.96-.57-.89-.51-.07-1.53v-11.76l-.07-1.46v-8.9l-.55-.83-.48-.83-2.41-1.27-2.34-1.27-2.34-1.21-2.34-1.27-.76.44-.82.38-.76.38-.76.44v5.34l.07,2.67v5.34l.07,2.67v5.34l-1.31-.76-1.31-.7-1.37-.7-1.31-.7v-2.92l-.07-1.53v-4.39l-.07-1.46v-13.28l-.55-.83-.55-.83-2.34-1.21-2.34-1.27-2.34-1.21-2.27-1.21-.82.38-.76.44-.76.38-.76.38v13.22l.07,2.67v2.61l.07,2.67-.82-.44-.82-.44-.82-.44-.82-.44-.21-2.1-.14-2.29-.07-2.29-.07-2.35-.07-2.35v-4.58l.07-2.22.07-2.1.14-1.97.14-1.78.14-1.59.21-1.4.21-1.08.21-.83.21-.57h0Zm38.48,55.04l-.07,1.27v1.14l-.07,1.14v1.27l-3.09-1.21-2.95-1.27-2.95-1.27-2.89-1.33-2.82-1.33-2.68-1.33-2.61-1.33-2.54-1.4-2.41-1.33-2.27-1.33-2.2-1.33-2.06-1.33-1.86-1.33-1.72-1.27-1.58-1.21-1.44-1.14-.21-.89-.21-1.27-.21-1.46-.21-1.46,1.03.51,1.03.57,1.1.51,1.03.57.76-.38.76-.44.76-.38.76-.38-.07-2.67v-2.61l-.07-2.67v-2.61l-.07-2.67v-7.94l1.31.7,1.24.64,1.31.7,1.31.64v5.34l.07,2.67v5.34l.07,2.67v2.61l.07,2.67.55,1.14.55,1.08.62,1.08.55,1.14,2.06,1.14,2.06,1.14,2.13,1.14,2.06,1.14.76-.38.76-.44.76-.38.76-.38-.07-2.67v-5.34l-.07-2.67v-10.74l1.31.7,1.31.7,1.31.7,1.31.7v13.28l.07,2.67v5.34l.55,1.08.62,1.14.55,1.08.55,1.14,1.44.76,1.37.76,1.37.83,1.44.76h0Z"/>
        <path class="cls-2" d="m4.19,23.83v-.38l.07-.19.27-.38.48-.44h15.81l19.38,10.93,1.17.7,1.24-.7,18.69-11.06h16.08v-.19l.69.51.55.51.21.19.14.19.07.19v.13l-4.6,2.41-4.47,2.41-4.47,2.35-4.4,2.41-4.54,2.41-4.67,2.48-4.88,2.61-5.15,2.67-4.47-2.29-4.74-2.48-4.81-2.61-4.95-2.61-4.88-2.54-4.81-2.54-4.6-2.41-4.4-2.29h0Zm65.42-5.97l-1.1-.57-1.1-.51-1.17-.57-1.17-.57h-9l-14.22,8.33-.69.38-.69-.38-15.26-8.39-7.7-.06-1.37.64-1.31.64-1.24.64-1.24.64h9.76l.55.32,18.62,10.49,18.14-10.68.55-.32h9.62Zm-9.83-4.64l-2.89-1.4-2.82-1.53-1.44-.76-1.31-.83-1.31-.83-1.24-.83-1.17-.83-1.17-.83-1.03-.89-.96-.89-.89-.89-.82-.89-.69-.89-.55-.95-.62.95-.69.89-.76.83-.89.89-.96.83-1.03.83-1.1.83-1.17.83-1.24.83-1.31.76-1.37.83-1.44.76-3.02,1.53-3.23,1.53h3.3l.27.19,14.84,8.2,13.88-8.07.34-.19h4.47Z"/>
        <path class="cls-2" d="m43.5,86.49l1.24-.57,1.24-.57,1.24-.57,1.17-.57v-2.03l.07-2.03v-10.23l.07-2.03v-8.13l.07-2.03v-6.16l.55-.7.48-.76.55-.76.48-.7,1.65-.89,1.65-.83,1.65-.89,1.65-.83,1.65-.89,1.65-.83,1.65-.89,1.65-.83,1.65-.89,1.65-.89,1.65-.83,1.65-.89,1.65-.89,1.65-.89,1.65-.89,1.65-.89.96.38,1.03.38v7.75l-.07,2.61v7.75l-.07,2.54-.48.89-.55.89-.55.89-.55.89-1.37.76-1.37.76-1.37.7-1.37.76-1.31.76-1.37.7-1.37.76-1.37.76-.55-.32-.48-.32-.55-.25-.48-.32v-3.88l.07-1.91v-1.97l1.44-.7,1.37-.76,1.37-.7,1.44-.76v-1.97l.07-.7v-.89l.07-.95-1.99,1.08-1.99,1.08-2.06,1.08-1.99,1.08-.55.7-.48.7-.55.7-.55.76v4.19l-.07,1.4v4.19l-.07,1.4v2.8l-.07,1.4v2.8l-.07,1.4v2.8l1.24-.64,1.24-.64,1.37-.64,1.44-.7,1.44-.7,1.44-.76,1.51-.76,1.51-.83,1.51-.76,1.44-.89,1.51-.83,1.44-.89,1.37-.89,1.31-.89,1.31-.83,1.17-.89.34-2.1.27-2.22.27-2.29.21-2.41.21-2.48.14-2.48.14-2.54.07-2.61v-5.21l-.07-2.61-.14-2.61-.14-2.54-.21-2.54-.21-2.48-.27-2.35-2.61,1.4-2.61,1.33-2.61,1.4-2.54,1.33-2.54,1.33-2.54,1.33-2.47,1.33-2.47,1.27-2.41,1.27-2.41,1.21-2.34,1.21-2.27,1.21-2.2,1.21-2.13,1.14-2.13,1.08-1.99,1.14v2.73l-.07,2.61v14.93l-.07,2.16v4.77l-.07,2.61v6.16l-.07,3.5h0Zm7.9-3.69l1.24-.64,1.17-.57,1.1-.57,1.24-.64v-3.18l.07-1.59v-3.11l.07-1.59v-4.77l.07-1.59v-6.36l.07-1.59v-1.59l.55-.7.48-.76.55-.7.55-.76,1.51-.76,1.44-.76,1.51-.76,1.44-.83,1.51-.76,1.51-.76,1.44-.76,1.51-.83,1.03.38,1.03.32-.07,2.16v2.22l-.07,2.16v2.22l-1.44.76-1.37.76-1.44.76-1.44.76v3.81l1.79-.95,1.79-1.02,1.79-.95,1.86-.95.48-.76.55-.7.55-.76.55-.7v-1.91l.07-1.97v-3.81l.07-1.91v-5.78l-1.03-.32-.96-.32-2.54,1.33-2.54,1.33-2.54,1.33-2.54,1.33-2.54,1.33-2.54,1.33-2.54,1.33-2.54,1.33-.55.7-.55.7-.48.76-.55.7v3.75l-.07,1.84v5.59l-.07,1.91v5.59l-.07,1.84v3.75l-.07,1.84v3.75h0Z"/>
      </g>
      <g>
        <g>
          <path class="cls-1" d="m98.25,12.02h-3.26v2.15h2.89v1.37h-2.89v2.27h3.26v1.4h-4.98v-8.59h4.98v1.4Z"/>
          <path class="cls-1" d="m102.77,19.29c-1.78,0-3.16-.93-3.18-2.56h1.84c.05.69.5,1.14,1.3,1.14s1.29-.43,1.29-1.04c0-1.86-4.43-.74-4.41-3.85,0-1.55,1.25-2.48,3.02-2.48s2.96.9,3.07,2.45h-1.89c-.04-.56-.49-1.01-1.23-1.02-.67-.03-1.18.31-1.18,1.01,0,1.72,4.4.76,4.4,3.79,0,1.35-1.08,2.57-3.03,2.57Z"/>
          <path class="cls-1" d="m111.23,10.52c1.9,0,3.45,1.02,4.03,2.78h-1.98c-.4-.82-1.14-1.23-2.06-1.23-1.5,0-2.57,1.09-2.57,2.84s1.07,2.84,2.57,2.84c.92,0,1.66-.4,2.06-1.24h1.98c-.58,1.77-2.13,2.78-4.03,2.78-2.47,0-4.35-1.81-4.35-4.38s1.88-4.39,4.35-4.39Z"/>
          <path class="cls-1" d="m116.72,10.63h1.72v5.31c0,1.18.64,1.79,1.73,1.79s1.75-.61,1.75-1.79v-5.31h1.73v5.3c0,2.26-1.62,3.37-3.5,3.37s-3.43-1.11-3.43-3.37v-5.3Z"/>
          <path class="cls-1" d="m130.29,12.02h-3.26v2.15h2.89v1.37h-2.89v2.27h3.26v1.4h-4.98v-8.59h4.98v1.4Z"/>
          <path class="cls-1" d="m133.58,10.63v7.21h2.83v1.37h-4.55v-8.58h1.72Z"/>
          <path class="cls-1" d="m142.76,17.57h-3.42l-.57,1.64h-1.81l3.08-8.59h2l3.08,8.59h-1.82l-.56-1.64Zm-1.71-4.97l-1.24,3.59h2.48l-1.24-3.59Z"/>
          <path class="cls-1" d="m156.75,14.93c0,2.59-1.78,4.28-4.52,4.28h-3v-8.58h3c2.74,0,4.52,1.7,4.52,4.3Zm-4.59,2.81c1.81,0,2.83-1.03,2.83-2.81s-1.02-2.85-2.83-2.85h-1.22v5.67h1.22Z"/>
          <path class="cls-1" d="m163.03,12.02h-3.26v2.15h2.89v1.37h-2.89v2.27h3.26v1.4h-4.98v-8.59h4.98v1.4Z"/>
          <path class="cls-1" d="m167.52,10.63h5.3v1.39h-3.58v2.2h2.74v1.37h-2.74v3.62h-1.72v-8.58Z"/>
          <path class="cls-1" d="m178.02,19.29c-2.42,0-4.4-1.82-4.4-4.4s1.98-4.39,4.4-4.39,4.39,1.82,4.39,4.39-1.95,4.4-4.39,4.4Zm0-1.54c1.55,0,2.62-1.12,2.62-2.86s-1.07-2.84-2.62-2.84-2.63,1.09-2.63,2.84,1.07,2.86,2.63,2.86Z"/>
          <path class="cls-1" d="m186.91,10.63c2.06,0,3.1,1.19,3.1,2.63,0,1.04-.58,2.1-1.95,2.47l2.05,3.48h-1.99l-1.89-3.34h-.81v3.34h-1.72v-8.58h3.22Zm-.06,1.43h-1.44v2.52h1.44c.96,0,1.39-.5,1.39-1.28s-.43-1.24-1.39-1.24Z"/>
          <path class="cls-1" d="m191.57,10.63h1.95l2.73,6.38,2.73-6.38h1.94v8.58h-1.72v-5.58l-2.3,5.58h-1.3l-2.31-5.58v5.58h-1.72v-8.58Z"/>
          <path class="cls-1" d="m207.89,17.57h-3.42l-.57,1.64h-1.81l3.08-8.59h2l3.08,8.59h-1.82l-.56-1.64Zm-1.71-4.97l-1.24,3.59h2.48l-1.24-3.59Z"/>
          <path class="cls-1" d="m215.36,10.52c1.91,0,3.45,1.02,4.03,2.78h-1.98c-.4-.82-1.14-1.23-2.06-1.23-1.5,0-2.57,1.09-2.57,2.84s1.07,2.84,2.57,2.84c.92,0,1.66-.4,2.06-1.24h1.98c-.58,1.77-2.13,2.78-4.03,2.78-2.47,0-4.35-1.81-4.35-4.38s1.88-4.39,4.35-4.39Z"/>
          <path class="cls-1" d="m220.88,10.63h1.72v8.58h-1.72v-8.58Z"/>
          <path class="cls-1" d="m228.28,19.29c-2.42,0-4.4-1.82-4.4-4.4s1.98-4.39,4.4-4.39,4.39,1.82,4.39,4.39-1.95,4.4-4.39,4.4Zm0-1.54c1.55,0,2.62-1.12,2.62-2.86s-1.07-2.84-2.62-2.84-2.63,1.09-2.63,2.84,1.07,2.86,2.63,2.86Zm1.34-10.31v1.4l-2.83,1.29v-1.23l2.83-1.46Z"/>
          <path class="cls-1" d="m241.29,10.62v8.59h-1.72l-3.9-5.89v5.89h-1.72v-8.59h1.72l3.9,5.9v-5.9h1.72Z"/>
          <path class="cls-1" d="m251.17,17.57h-3.42l-.57,1.64h-1.81l3.08-8.59h2l3.08,8.59h-1.82l-.56-1.64Zm-1.71-4.97l-1.24,3.59h2.48l-1.24-3.59Z"/>
          <path class="cls-1" d="m257.94,10.63c2.06,0,3.1,1.19,3.1,2.63,0,1.04-.58,2.1-1.95,2.47l2.05,3.48h-1.99l-1.89-3.34h-.81v3.34h-1.72v-8.58h3.22Zm-.06,1.43h-1.44v2.52h1.44c.96,0,1.39-.5,1.39-1.28s-.43-1.24-1.39-1.24Z"/>
          <path class="cls-1" d="m262.14,10.63h6.29v1.39h-2.29v7.19h-1.72v-7.19h-2.29v-1.39Z"/>
          <path class="cls-1" d="m269.69,10.63h1.72v8.58h-1.72v-8.58Z"/>
          <path class="cls-1" d="m276.08,19.29c-1.78,0-3.16-.93-3.18-2.56h1.84c.05.69.5,1.14,1.3,1.14s1.29-.43,1.29-1.04c0-1.86-4.43-.74-4.41-3.85,0-1.55,1.25-2.48,3.02-2.48s2.96.9,3.07,2.45h-1.89c-.04-.56-.49-1.01-1.23-1.02-.67-.03-1.18.31-1.18,1.01,0,1.72,4.4.76,4.4,3.79,0,1.35-1.08,2.57-3.03,2.57Z"/>
          <path class="cls-1" d="m280.15,10.63h6.29v1.39h-2.29v7.19h-1.72v-7.19h-2.29v-1.39Z"/>
          <path class="cls-1" d="m287.7,10.63h1.72v8.58h-1.72v-8.58Z"/>
          <path class="cls-1" d="m295.05,10.52c1.9,0,3.45,1.02,4.03,2.78h-1.98c-.4-.82-1.14-1.23-2.06-1.23-1.5,0-2.57,1.09-2.57,2.84s1.07,2.84,2.57,2.84c.92,0,1.66-.4,2.06-1.24h1.98c-.58,1.77-2.13,2.78-4.03,2.78-2.47,0-4.35-1.81-4.35-4.38s1.88-4.39,4.35-4.39Z"/>
          <path class="cls-1" d="m305.82,17.57h-3.42l-.57,1.64h-1.81l3.08-8.59h2l3.08,8.59h-1.82l-.56-1.64Zm-1.71-4.97l-1.24,3.59h2.48l-1.24-3.59Z"/>
          <path class="cls-1" d="m315.45,15.91h-1.44v3.29h-1.72v-8.58h3.16c2.06,0,3.1,1.17,3.1,2.65,0,1.3-.88,2.63-3.1,2.63Zm-.07-1.39c.97,0,1.4-.48,1.4-1.24s-.43-1.25-1.4-1.25h-1.37v2.49h1.37Z"/>
          <path class="cls-1" d="m319.74,10.63h1.72v5.31c0,1.18.64,1.79,1.73,1.79s1.75-.61,1.75-1.79v-5.31h1.73v5.3c0,2.26-1.62,3.37-3.5,3.37s-3.43-1.11-3.43-3.37v-5.3Zm4.79-3.18v1.4l-2.83,1.29v-1.23l2.83-1.46Z"/>
          <path class="cls-1" d="m332.04,19.21h-3.7v-8.58h3.54c1.8,0,2.79.93,2.79,2.21,0,1.04-.63,1.7-1.46,1.97.97.17,1.66,1.07,1.66,2.08,0,1.37-1.04,2.32-2.83,2.32Zm-.41-7.19h-1.57v2.15h1.57c.81,0,1.28-.37,1.28-1.07s-.47-1.08-1.28-1.08Zm.12,3.48h-1.7v2.31h1.73c.84,0,1.33-.41,1.33-1.13s-.53-1.18-1.36-1.18Z"/>
          <path class="cls-1" d="m337.97,10.63v7.21h2.83v1.37h-4.55v-8.58h1.72Z"/>
          <path class="cls-1" d="m341.89,10.63h1.72v8.58h-1.72v-8.58Z"/>
          <path class="cls-1" d="m349.24,10.52c1.9,0,3.45,1.02,4.03,2.78h-1.98c-.4-.82-1.14-1.23-2.06-1.23-1.5,0-2.57,1.09-2.57,2.84s1.07,2.84,2.57,2.84c.92,0,1.66-.4,2.06-1.24h1.98c-.58,1.77-2.13,2.78-4.03,2.78-2.47,0-4.35-1.81-4.35-4.38s1.88-4.39,4.35-4.39Z"/>
          <path class="cls-1" d="m360.01,17.57h-3.42l-.57,1.64h-1.81l3.08-8.59h2l3.08,8.59h-1.82l-.56-1.64Zm-1.71-4.97l-1.24,3.59h2.48l-1.24-3.59Z"/>
          <path class="cls-1" d="m374.01,14.93c0,2.59-1.78,4.28-4.52,4.28h-3v-8.58h3c2.74,0,4.52,1.7,4.52,4.3Zm-4.59,2.81c1.81,0,2.83-1.03,2.83-2.81s-1.02-2.85-2.83-2.85h-1.22v5.67h1.22Z"/>
          <path class="cls-1" d="m380.28,12.02h-3.26v2.15h2.89v1.37h-2.89v2.27h3.26v1.4h-4.98v-8.59h4.98v1.4Z"/>
        </g>
        <g>
          <path class="cls-1" d="m116.8,44.16c0,1.23-.25,2.32-.74,3.25-.49.93-1.17,1.72-2.04,2.34-.86.63-1.86,1.11-3,1.44s-2.35.49-3.64.49h-14.11v-29.2h15.63c1.01,0,1.93.22,2.76.66.82.44,1.52,1.01,2.1,1.71.58.7,1.02,1.49,1.34,2.39s.47,1.79.47,2.69c0,1.43-.36,2.76-1.07,4.01s-1.75,2.17-3.12,2.78c1.67.49,2.99,1.38,3.97,2.65s1.46,2.87,1.46,4.79Zm-17.85-16.82v7.36h7.57c.96,0,1.77-.33,2.45-.99s1.01-1.56,1.01-2.71-.31-2.01-.92-2.67-1.38-.99-2.28-.99h-7.82Zm12.14,15.75c0-.52-.09-1.02-.27-1.5-.18-.48-.42-.9-.72-1.26-.3-.35-.66-.64-1.07-.84-.41-.21-.86-.31-1.36-.31h-8.72v7.69h8.43c.52,0,1.01-.1,1.46-.29.45-.19.84-.46,1.17-.8s.59-.75.78-1.21c.19-.47.29-.96.29-1.48Z"/>
          <path class="cls-1" d="m141.52,46.71v4.98h-20.28v-29.2h19.91v4.98h-14.23v7.03h12.3v4.61h-12.3v7.61h14.6Z"/>
          <path class="cls-1" d="m145.96,51.68v-29.2h5.68v24.23h14.89v4.98h-20.57Z"/>
          <path class="cls-1" d="m169.98,51.68v-29.2h5.68v24.23h14.89v4.98h-20.57Z"/>
          <path class="cls-1" d="m202.31,22.48h5.02l11.11,29.2h-5.84l-2.71-7.28h-10.2l-2.67,7.28h-5.84l11.15-29.2Zm6.54,17.93l-4.03-11.48-4.2,11.48h8.23Z"/>
          <path class="cls-1" d="m238.59,30.13c-.19-.19-.54-.45-1.05-.78-.51-.33-1.13-.65-1.85-.97-.73-.32-1.52-.58-2.37-.8-.85-.22-1.71-.33-2.59-.33-1.56,0-2.73.29-3.5.86s-1.15,1.39-1.15,2.43c0,.61.14,1.11.43,1.5.29.4.71.75,1.25,1.05s1.24.58,2.08.82c.84.25,1.8.51,2.9.78,1.43.38,2.72.79,3.89,1.23,1.17.44,2.15.99,2.96,1.64s1.43,1.45,1.87,2.37c.44.92.66,2.05.66,3.39,0,1.56-.29,2.9-.88,4.01-.59,1.11-1.39,2.01-2.39,2.69-1,.69-2.15,1.19-3.46,1.5-1.3.32-2.67.47-4.09.47-2.19,0-4.36-.33-6.5-.99s-4.06-1.59-5.76-2.8l2.51-4.89c.25.25.69.57,1.34.97s1.41.79,2.28,1.19c.88.4,1.85.73,2.92,1.01,1.07.27,2.17.41,3.29.41,3.12,0,4.69-1,4.69-3,0-.63-.18-1.17-.53-1.6-.36-.44-.86-.82-1.52-1.15-.66-.33-1.45-.63-2.39-.9-.93-.27-1.98-.58-3.13-.9-1.4-.38-2.61-.8-3.64-1.26-1.03-.45-1.88-.99-2.57-1.6-.68-.62-1.2-1.33-1.54-2.14-.34-.81-.51-1.77-.51-2.9,0-1.48.27-2.8.82-3.95.55-1.15,1.31-2.11,2.28-2.88.97-.77,2.11-1.35,3.39-1.75,1.29-.4,2.67-.6,4.15-.6,2.06,0,3.95.32,5.68.97,1.73.64,3.24,1.41,4.52,2.28l-2.51,4.61Z"/>
          <path class="cls-1" d="m263.31,22.48h5.02l11.11,29.2h-5.84l-2.71-7.28h-10.2l-2.67,7.28h-5.84l11.15-29.2Zm6.54,17.93l-4.03-11.48-4.2,11.48h8.23Z"/>
          <path class="cls-1" d="m282.64,51.68v-29.2h12.92c1.34,0,2.58.28,3.72.84s2.12,1.3,2.94,2.22c.82.92,1.47,1.96,1.93,3.13.47,1.17.7,2.34.7,3.52,0,1.89-.47,3.61-1.42,5.16s-2.23,2.67-3.85,3.35l6.66,10.98h-6.38l-5.96-9.79h-5.59v9.79h-5.68Zm5.68-14.77h7.12c.52,0,1.01-.12,1.46-.37.45-.25.84-.58,1.17-1.01.33-.43.59-.93.78-1.5.19-.58.29-1.19.29-1.85s-.11-1.32-.33-1.89c-.22-.58-.51-1.08-.89-1.5-.37-.43-.79-.76-1.27-.99-.48-.23-.97-.35-1.46-.35h-6.87v9.46Z"/>
          <path class="cls-1" d="m331.39,27.46h-9.34v24.23h-5.64v-24.23h-9.34v-4.98h24.31v4.98Z"/>
          <path class="cls-1" d="m355.28,46.71v4.98h-20.28v-29.2h19.91v4.98h-14.23v7.03h12.3v4.61h-12.3v7.61h14.6Z"/>
          <path class="cls-1" d="m376.51,30.13c-.19-.19-.54-.45-1.05-.78-.51-.33-1.13-.65-1.85-.97-.73-.32-1.52-.58-2.37-.8-.85-.22-1.71-.33-2.59-.33-1.56,0-2.73.29-3.5.86s-1.15,1.39-1.15,2.43c0,.61.14,1.11.43,1.5.29.4.71.75,1.25,1.05s1.24.58,2.08.82c.84.25,1.8.51,2.9.78,1.43.38,2.72.79,3.89,1.23,1.17.44,2.15.99,2.96,1.64s1.43,1.45,1.87,2.37c.44.92.66,2.05.66,3.39,0,1.56-.29,2.9-.88,4.01-.59,1.11-1.39,2.01-2.39,2.69-1,.69-2.15,1.19-3.46,1.5-1.3.32-2.67.47-4.09.47-2.19,0-4.36-.33-6.5-.99s-4.06-1.59-5.76-2.8l2.51-4.89c.25.25.69.57,1.34.97s1.41.79,2.28,1.19c.88.4,1.85.73,2.92,1.01,1.07.27,2.17.41,3.29.41,3.12,0,4.69-1,4.69-3,0-.63-.18-1.17-.53-1.6-.36-.44-.86-.82-1.52-1.15-.66-.33-1.45-.63-2.39-.9-.93-.27-1.98-.58-3.13-.9-1.4-.38-2.61-.8-3.64-1.26-1.03-.45-1.88-.99-2.57-1.6-.68-.62-1.2-1.33-1.54-2.14-.34-.81-.51-1.77-.51-2.9,0-1.48.27-2.8.82-3.95.55-1.15,1.31-2.11,2.28-2.88.97-.77,2.11-1.35,3.39-1.75,1.29-.4,2.67-.6,4.15-.6,2.06,0,3.95.32,5.68.97,1.73.64,3.24,1.41,4.52,2.28l-2.51,4.61Z"/>
        </g>
        <g>
          <path class="cls-1" d="m96.33,59.83l-.57,3.19h1.04v3.53h-3.53v-3.58l.94-3.13h2.12Zm4.91,0l-.57,3.19h1.05v3.53h-3.53v-3.58l.94-3.13h2.12Z"/>
          <path class="cls-1" d="m106.98,60.35l5.01,14.03,4.96-14.03h3.79l-7.24,18.54h-3.03l-7.29-18.54h3.79Z"/>
          <path class="cls-1" d="m122.73,78.89v-18.54h3.6v18.54h-3.6Zm2.69-20.11l-2.25-.68,1.41-3.11h3.27l-2.43,3.79Z"/>
          <path class="cls-1" d="m129.08,69.49c0-1.13.2-2.25.61-3.36.41-1.11,1.01-2.09,1.79-2.96.78-.87,1.74-1.57,2.87-2.12,1.13-.54,2.42-.81,3.87-.81,1.71,0,3.18.38,4.43,1.12s2.17,1.72,2.78,2.92l-2.77,1.91c-.24-.52-.54-.96-.89-1.32s-.72-.64-1.12-.85-.82-.36-1.25-.46c-.43-.1-.86-.14-1.28-.14-.91,0-1.69.18-2.36.55-.67.37-1.23.84-1.67,1.42-.44.58-.78,1.25-1.01,1.99s-.34,1.48-.34,2.21c0,.82.13,1.61.39,2.36s.63,1.42,1.11,2c.48.57,1.05,1.04,1.72,1.38.67.35,1.41.52,2.21.52.42,0,.85-.05,1.31-.16.45-.1.88-.27,1.29-.5s.79-.52,1.14-.88c.35-.36.63-.79.83-1.29l2.95,1.7c-.3.7-.72,1.31-1.27,1.84-.55.53-1.17.98-1.85,1.35-.69.37-1.42.64-2.21.84-.78.19-1.55.29-2.3.29-1.32,0-2.53-.28-3.63-.83s-2.04-1.28-2.83-2.18c-.79-.9-1.41-1.92-1.85-3.06s-.67-2.3-.67-3.49Z"/>
          <path class="cls-1" d="m161.8,63.51h-5.93v15.38h-3.58v-15.38h-5.93v-3.16h15.44v3.16Z"/>
          <path class="cls-1" d="m171.15,79.02c-1.36,0-2.59-.27-3.7-.8-1.11-.53-2.06-1.24-2.85-2.12-.79-.88-1.41-1.89-1.84-3.02-.43-1.13-.65-2.29-.65-3.47s.23-2.42.69-3.55c.46-1.13,1.1-2.13,1.91-3,.81-.87,1.77-1.56,2.89-2.08,1.11-.51,2.32-.77,3.63-.77s2.56.27,3.67.82,2.05,1.27,2.83,2.15c.78.89,1.39,1.9,1.83,3.03.43,1.13.65,2.28.65,3.45,0,1.24-.23,2.42-.68,3.54-.45,1.12-1.08,2.12-1.88,2.98-.8.86-1.76,1.55-2.87,2.06-1.11.51-2.32.77-3.63.77Zm-5.38-9.4c0,.8.12,1.58.37,2.32s.6,1.41,1.06,1.99c.46.57,1.03,1.04,1.7,1.38.67.35,1.43.52,2.29.52s1.64-.18,2.31-.54c.67-.36,1.24-.83,1.7-1.42.46-.59.81-1.26,1.04-2,.24-.74.35-1.49.35-2.26s-.13-1.58-.38-2.32c-.25-.75-.61-1.41-1.07-1.99-.46-.57-1.03-1.03-1.7-1.37-.67-.34-1.42-.51-2.26-.51s-1.65.18-2.32.54c-.68.36-1.25.83-1.7,1.41-.45.58-.8,1.25-1.03,1.99-.24.74-.35,1.49-.35,2.26Z"/>
          <path class="cls-1" d="m182.99,78.89v-18.54h8.2c.85,0,1.64.18,2.36.54s1.34.83,1.87,1.41c.52.58.93,1.25,1.23,1.99.3.74.44,1.48.44,2.23,0,1.2-.3,2.29-.9,3.28s-1.41,1.69-2.44,2.13l4.23,6.97h-4.05l-3.79-6.22h-3.55v6.22h-3.6Zm3.6-9.38h4.52c.33,0,.64-.08.93-.23.29-.16.53-.37.74-.64.21-.27.37-.59.5-.95.12-.37.18-.76.18-1.18s-.07-.84-.21-1.2c-.14-.37-.33-.68-.56-.95-.23-.27-.5-.48-.81-.63-.31-.15-.61-.22-.93-.22h-4.36v6.01Z"/>
          <path class="cls-1" d="m221.75,78.89v-12.28l-4.78,9.14h-1.96l-4.78-9.14v12.28h-3.6v-18.54h3.87l5.49,10.55,5.54-10.55h3.84v18.54h-3.6Z"/>
          <path class="cls-1" d="m237.13,79.02c-1.36,0-2.59-.27-3.7-.8-1.11-.53-2.06-1.24-2.85-2.12-.79-.88-1.41-1.89-1.84-3.02-.43-1.13-.65-2.29-.65-3.47s.23-2.42.69-3.55c.46-1.13,1.1-2.13,1.91-3s1.77-1.56,2.89-2.08c1.11-.51,2.32-.77,3.63-.77s2.56.27,3.67.82,2.05,1.27,2.83,2.15c.78.89,1.39,1.9,1.83,3.03.43,1.13.65,2.28.65,3.45,0,1.24-.23,2.42-.68,3.54-.45,1.12-1.08,2.12-1.88,2.98-.8.86-1.76,1.55-2.87,2.06-1.11.51-2.32.77-3.63.77Zm-5.38-9.4c0,.8.12,1.58.37,2.32s.6,1.41,1.06,1.99c.46.57,1.03,1.04,1.7,1.38.67.35,1.43.52,2.29.52s1.64-.18,2.31-.54c.67-.36,1.24-.83,1.7-1.42.46-.59.81-1.26,1.04-2,.24-.74.35-1.49.35-2.26s-.13-1.58-.38-2.32c-.25-.75-.61-1.41-1.07-1.99-.46-.57-1.03-1.03-1.7-1.37-.67-.34-1.42-.51-2.26-.51s-1.65.18-2.32.54c-.68.36-1.25.83-1.7,1.41-.45.58-.8,1.25-1.03,1.99-.24.74-.35,1.49-.35,2.26Z"/>
          <path class="cls-1" d="m248.96,78.89v-18.54h8.2c.85,0,1.64.18,2.36.54s1.34.83,1.87,1.41c.52.58.93,1.25,1.23,1.99.3.74.44,1.48.44,2.23,0,1.2-.3,2.29-.9,3.28s-1.41,1.69-2.44,2.13l4.23,6.97h-4.05l-3.79-6.22h-3.55v6.22h-3.6Zm3.6-9.38h4.52c.33,0,.64-.08.93-.23.29-.16.53-.37.74-.64.21-.27.37-.59.5-.95.12-.37.18-.76.18-1.18s-.07-.84-.21-1.2c-.14-.37-.33-.68-.56-.95-.23-.27-.5-.48-.81-.63-.31-.15-.61-.22-.93-.22h-4.36v6.01Z"/>
          <path class="cls-1" d="m279.21,75.73v3.16h-12.88v-18.54h12.64v3.16h-9.04v4.47h7.81v2.93h-7.81v4.83h9.27Z"/>
          <path class="cls-1" d="m284.12,60.35l4.57,8.93,4.65-8.93h3.89l-6.74,12.07v6.48h-3.58v-6.53l-6.71-12.01h3.92Z"/>
          <path class="cls-1" d="m304.65,78.89v-18.54h7.86c.85,0,1.64.18,2.36.54.72.36,1.34.83,1.87,1.41.52.58.93,1.25,1.23,1.99.3.74.44,1.48.44,2.23s-.14,1.55-.42,2.29c-.28.74-.67,1.4-1.18,1.97-.51.57-1.11,1.04-1.83,1.38-.71.35-1.5.52-2.35.52h-4.39v6.22h-3.6Zm3.6-9.38h4.18c.66,0,1.21-.27,1.66-.81.44-.54.67-1.27.67-2.19,0-.47-.07-.89-.21-1.27-.14-.37-.32-.69-.55-.95-.23-.26-.49-.46-.8-.59s-.61-.2-.93-.2h-4.02v6.01Z"/>
          <path class="cls-1" d="m333.79,75.73v3.16h-12.88v-18.54h12.64v3.16h-9.04v4.47h7.81v2.93h-7.81v4.83h9.27Z"/>
          <path class="cls-1" d="m340.22,67.01v11.88h-3.6v-18.54h2.8l9.66,12.17v-12.14h3.6v18.52h-2.93l-9.53-11.88Zm6.06-8.67c-.4,0-.75-.06-1.05-.18-.3-.12-.57-.26-.82-.4s-.5-.28-.76-.41c-.25-.12-.52-.18-.8-.18-.3,0-.53.06-.69.18-.17.12-.29.26-.38.42-.09.16-.14.3-.16.43-.02.13-.03.2-.03.22h-1.93c0-.16.05-.42.16-.8.11-.37.27-.75.51-1.12.24-.37.55-.7.94-.99.39-.29.88-.43,1.45-.43.4,0,.74.07,1.03.2.29.13.56.27.81.42.25.15.51.29.76.42.25.13.54.2.85.2s.56-.06.74-.18.32-.26.42-.42c.1-.16.16-.3.18-.44.03-.14.04-.23.04-.26h1.93c0,.12-.05.37-.16.73-.1.37-.28.74-.53,1.12-.25.38-.58.73-.99,1.03-.41.31-.92.46-1.53.46Z"/>
          <path class="cls-1" d="m361.82,60.35h3.19l7.05,18.54h-3.71l-1.72-4.62h-6.48l-1.7,4.62h-3.71l7.08-18.54Zm4.15,11.39l-2.56-7.29-2.66,7.29h5.22Z"/>
          <path class="cls-1" d="m372.19,66.38l.57-3.19h-1.05v-3.53h3.53v3.58l-.94,3.13h-2.12Zm4.91,0l.57-3.19h-1.04v-3.53h3.53v3.58l-.94,3.13h-2.12Z"/>
        </g>
      </g>
    </g>
  </g>
</svg>